<?xml version="1.0" standalone="no"?>
<!DOCTYPE svg PUBLIC "-//W3C//DTD SVG 20010904//EN"
 "http://www.w3.org/TR/2001/REC-SVG-20010904/DTD/svg10.dtd">
<svg version="1.0" xmlns="http://www.w3.org/2000/svg"
 width="68.000000pt" height="68.000000pt" viewBox="0 0 68.000000 68.000000"
 preserveAspectRatio="xMidYMid meet">
<metadata>
Created by potrace 1.10, written by Peter Selinger 2001-2011
</metadata>
<g transform="translate(0.000000,68.000000) scale(0.100000,-0.100000)"
fill="#909be8" stroke="none">
<path d="M300 642 l-38 -40 -38 13 c-22 8 -46 14 -55 15 -20 0 -39 -41 -39
-85 0 -32 -3 -35 -29 -35 -42 0 -91 -20 -91 -37 0 -75 81 -178 156 -201 47
-14 99 -15 129 -2 13 5 -2 8 -45 7 -96 0 -163 39 -204 120 -24 48 -21 82 10
93 14 6 36 10 50 10 20 0 24 -5 24 -29 0 -60 104 -171 160 -171 8 0 -3 9 -25
19 -65 30 -125 111 -125 167 0 17 21 16 75 -1 14 -4 13 -2 -5 9 -14 8 -35 15
-47 16 -26 0 -31 29 -13 74 10 28 30 32 78 15 28 -9 30 -13 21 -35 -5 -14 -8
-37 -8 -52 2 -27 2 -27 6 -2 2 14 9 35 15 48 l12 22 32 -31 c22 -22 30 -37 26
-51 -3 -14 -1 -19 6 -14 7 4 15 -6 21 -26 5 -18 10 -25 10 -16 1 9 -4 29 -9
43 -11 29 1 55 40 82 19 13 24 13 31 2 5 -8 9 -24 9 -36 0 -13 4 -23 10 -23 5
0 3 19 -4 45 l-14 44 33 7 c54 10 68 2 81 -41 11 -34 13 -36 13 -13 2 49 -16
78 -46 78 -42 -1 -104 -33 -138 -71 l-30 -34 -35 36 -35 37 32 31 c39 37 43
38 73 6 13 -14 28 -25 33 -25 13 0 -32 48 -56 62 -15 8 -26 2 -57 -30z"/>
<path d="M503 509 c-46 -13 -41 -21 9 -13 l41 7 -7 -34 c-10 -51 -56 -110
-106 -135 -57 -30 -69 -30 -43 -1 11 12 23 29 28 37 4 8 -9 -3 -29 -25 -40
-44 -39 -46 -20 42 9 42 -5 22 -19 -28 l-13 -44 -13 49 c-6 27 -14 46 -17 43
-3 -3 0 -24 6 -47 8 -29 8 -45 1 -54 -18 -21 -4 -24 49 -10 103 27 165 81 186
163 10 43 13 46 40 43 16 -2 42 -10 57 -17 21 -10 27 -11 24 -2 -9 30 -110 44
-174 26z"/>
<path d="M423 463 c-16 -15 -22 -22 -13 -15 24 18 30 15 31 -15 1 -24 3 -22
10 11 5 21 7 41 5 43 -2 3 -17 -8 -33 -24z"/>
<path d="M240 454 c0 -35 34 -105 62 -130 24 -21 18 -7 -19 42 -12 17 -26 46
-29 65 l-7 34 27 -25 c15 -13 24 -18 21 -10 -3 8 -17 23 -30 33 -25 18 -25 18
-25 -9z"/>
<path d="M657 436 c-14 -51 -64 -113 -109 -135 -34 -16 -58 -19 -112 -17 -49
2 -64 1 -51 -6 9 -6 47 -8 85 -6 52 3 76 10 108 31 47 30 95 105 90 139 -3 21
-4 21 -11 -6z"/>
<path d="M10 174 c0 -5 11 -29 25 -53 14 -23 25 -58 25 -77 0 -19 5 -34 10
-34 6 0 10 17 10 38 0 21 11 54 25 77 14 22 25 44 25 49 0 16 -28 -15 -40 -44
-7 -17 -16 -30 -20 -30 -4 0 -13 13 -20 30 -12 29 -40 60 -40 44z"/>
<path d="M202 155 c-62 -52 -28 -145 53 -145 73 0 110 80 63 134 -35 40 -78
43 -116 11z m99 -16 c44 -44 -3 -129 -62 -114 -29 7 -58 51 -53 78 8 54 76 75
115 36z"/>
<path d="M418 164 c-46 -24 -53 -90 -15 -131 23 -26 84 -32 105 -11 14 14 16
68 2 68 -5 0 -10 -13 -10 -29 0 -47 -46 -56 -85 -16 -31 30 -32 65 -2 93 24
23 71 29 82 12 4 -6 11 -7 17 -4 12 8 -28 33 -52 33 -8 0 -27 -6 -42 -15z"/>
<path d="M591 107 c-13 -40 -26 -78 -28 -84 -3 -7 -1 -13 5 -13 6 0 13 13 17
30 5 25 12 30 35 30 23 0 30 -5 35 -30 4 -17 11 -30 16 -30 5 0 9 1 9 3 0 9
-53 153 -59 159 -3 3 -17 -26 -30 -65z m39 14 c0 -5 3 -16 6 -25 4 -12 0 -16
-16 -16 -16 0 -20 4 -16 16 3 9 6 20 6 25 0 5 5 9 10 9 6 0 10 -4 10 -9z"/>
</g>
</svg>
